<svg class="diagram-root" style="background: #f5f6f6" xmlns="http://www.w3.org/2000/svg" xmlns:xlink="http://www.w3.org/1999/xlink"><style>.diagram-root { font-family: "Helvetica Neue", sans-serif; font-size: 12px; } .t { overflow: visible; } .t-bg { y: 40; fill: #fff;   } .th { fill: #005aa0;   } .tht { fill: #fff; font-size: 14px;  } .tf { fill: #323c46; overflow: visible; } .tf.pk { fill: #005aa0; font-weight: bold; } .tf.fk { font-weight: bold; } .ty { fill: #adb1b5; font-weight: normal; text-anchor: end; } .r { fill: transparent; stroke: #c3c3c3; stroke-width: 1; } .l { stroke: 1; } .i { fill: #c2c7ce; stroke: #c2c7ce; } .i.ix { fill: #afb3b6; stroke: #000; } .fa { fill: transparent; overflow: visible; } .fa .bg.hover { fill: #f7f7f7; } .c { cy: 12; r: 4; stroke: #d2d2dc; fill: #d2d2dc; } .hr { fill: transparent; stroke: #323c46; stroke-opacity: 0.035; stroke-width: 13; } .dc { stroke: #fa5a3c; fill: #fa5a3c; } .x { stroke: white; stroke-width: 1; } .hl .th { fill: #1b9bff; } .hl .tht {  } .fhl .bg { fill: #e7f4ff; } .fhls .bg {  } .r.hl { stroke: #1b9bff; } .dim { opacity: 0.25; }</style><g class="drawing-wrapper" transform="translate(177.11, 508.78) scale(1,1)"><g class="rs"><path d="M 79.33 -421.78 m -1, 0 a 1,1 0 1,0 2,0 a 1,1 0 1,0 -2,0 M 79.33 -421.78 m -0.5, 0 a 0.5,0.5 0 1,0 1,0 a 0.5,0.5 0 1,0 -1,0  M79.33 -421.78 L79.33 -421.78 91.33 -421.78 M 79.33 -415.78 m -1, 0 a 1,1 0 1,0 2,0 a 1,1 0 1,0 -2,0 M 79.33 -415.78 m -0.5, 0 a 0.5,0.5 0 1,0 1,0 a 0.5,0.5 0 1,0 -1,0  M79.33 -415.78 L79.33 -415.78 86.33 -421.78 79.33 -427.78 M 79.33 -427.78 m -1, 0 a 1,1 0 1,0 2,0 a 1,1 0 1,0 -2,0 M 79.33 -427.78 m -0.5, 0 a 0.5,0.5 0 1,0 1,0 a 0.5,0.5 0 1,0 -1,0  M91.33 -421.78 Q 168.61 -421.78, 245.89 -405.5 T 400.44 -389.22 M 412.44 -389.22 m -1, 0 a 1,1 0 1,0 2,0 a 1,1 0 1,0 -2,0 M 412.44 -389.22 m -0.5, 0 a 0.5,0.5 0 1,0 1,0 a 0.5,0.5 0 1,0 -1,0  M412.44 -389.22 L412.44 -389.22 400.44 -389.22 M406.44 -383.22 L406.44 -383.22 406.44 -395.22" id="h2052758708" class="r"></path><path d="M 60.54 -245.11 m -1, 0 a 1,1 0 1,0 2,0 a 1,1 0 1,0 -2,0 M 60.54 -245.11 m -0.5, 0 a 0.5,0.5 0 1,0 1,0 a 0.5,0.5 0 1,0 -1,0  M60.54 -245.11 L60.54 -245.11 72.53999999999999 -245.11 M 60.54 -239.11 m -1, 0 a 1,1 0 1,0 2,0 a 1,1 0 1,0 -2,0 M 60.54 -239.11 m -0.5, 0 a 0.5,0.5 0 1,0 1,0 a 0.5,0.5 0 1,0 -1,0  M60.54 -239.11 L60.54 -239.11 67.53999999999999 -245.11 60.54 -251.11 M 60.54 -251.11 m -1, 0 a 1,1 0 1,0 2,0 a 1,1 0 1,0 -2,0 M 60.54 -251.11 m -0.5, 0 a 0.5,0.5 0 1,0 1,0 a 0.5,0.5 0 1,0 -1,0  M72.53999999999999 -245.11 Q 154.51 -245.11, 236.49 -317.17 T 400.44 -389.22 M 412.44 -389.22 m -1, 0 a 1,1 0 1,0 2,0 a 1,1 0 1,0 -2,0 M 412.44 -389.22 m -0.5, 0 a 0.5,0.5 0 1,0 1,0 a 0.5,0.5 0 1,0 -1,0  M412.44 -389.22 L412.44 -389.22 400.44 -389.22 M406.44 -383.22 L406.44 -383.22 406.44 -395.22" id="h579228245" class="r"></path><path d="M 153.44 -9.11 m -1, 0 a 1,1 0 1,0 2,0 a 1,1 0 1,0 -2,0 M 153.44 -9.11 m -0.5, 0 a 0.5,0.5 0 1,0 1,0 a 0.5,0.5 0 1,0 -1,0  M153.44 -9.11 L153.44 -9.11 141.44 -9.11 M 153.44 -3.1099999999999994 m -1, 0 a 1,1 0 1,0 2,0 a 1,1 0 1,0 -2,0 M 153.44 -3.1099999999999994 m -0.5, 0 a 0.5,0.5 0 1,0 1,0 a 0.5,0.5 0 1,0 -1,0  M153.44 -3.1099999999999994 L153.44 -3.1099999999999994 146.44 -9.11 153.44 -15.11 M 153.44 -15.11 m -1, 0 a 1,1 0 1,0 2,0 a 1,1 0 1,0 -2,0 M 153.44 -15.11 m -0.5, 0 a 0.5,0.5 0 1,0 1,0 a 0.5,0.5 0 1,0 -1,0  M141.44 -9.11 C 91.44 -9.11, -63.960000000000036 -389.22, 400.44 -389.22 M 412.44 -389.22 m -1, 0 a 1,1 0 1,0 2,0 a 1,1 0 1,0 -2,0 M 412.44 -389.22 m -0.5, 0 a 0.5,0.5 0 1,0 1,0 a 0.5,0.5 0 1,0 -1,0  M412.44 -389.22 L412.44 -389.22 400.44 -389.22 M406.44 -383.22 L406.44 -383.22 406.44 -395.22" id="h1505063055" class="r"></path></g><g class="hrs"></g><g class="ts"><svg width="187.11" height="125" x="-107.78" y="-478.78" id="h1135681036" class="t"><rect height="40" width="187.11" class="th"></rect><text x="13" y="25" class="tht">calendar_average_pricing</text><rect height="85" width="187.11" class="t-bg"></rect><text x="13" y="61" class="tf fk">listing_id<tspan x="174.11" class="ty">INT</tspan></text><text x="13" y="86" class="tf">price<tspan x="174.11" class="ty">FLOAT</tspan></text><text x="13" y="111" class="tf">month<tspan x="174.11" class="ty">INT</tspan></text></svg><svg width="203.87" height="225" x="-143.33" y="-327.11" id="h188878944" class="t"><rect height="40" width="203.87" class="th"></rect><text x="13" y="25" class="tht">property_avg_pricing</text><rect height="185" width="203.87" class="t-bg"></rect><text x="13" y="61" class="tf pk">property_no<tspan x="190.87" class="ty">SERIAL</tspan></text><path d="M7,14A2,2 0 0,1 5,12A2,2 0 0,1 7,10A2,2 0 0,1 9,12A2,2 0 0,1 7,14M12.65,10C11.83,7.67 9.61,6 7, 6A6, 6 0 0, 0 1, 12A6, 6 0 0, 0 7, 18C9.61, 18 11.83, 16.33 12.65, 14H17V18H21V14H23V10H12.65Z" class="i pk" transform="translate(128.184453125, 48) scale(0.65)"></path><text x="13" y="86" class="tf fk">listing_id<tspan x="190.87" class="ty">INT</tspan></text><text x="13" y="111" class="tf pk">property_type<tspan x="190.87" class="ty">VARCHAR</tspan></text><path d="M7,14A2,2 0 0,1 5,12A2,2 0 0,1 7,10A2,2 0 0,1 9,12A2,2 0 0,1 7,14M12.65,10C11.83,7.67 9.61,6 7, 6A6, 6 0 0, 0 1, 12A6, 6 0 0, 0 7, 18C9.61, 18 11.83, 16.33 12.65, 14H17V18H21V14H23V10H12.65Z" class="i pk" transform="translate(113.078984375, 98) scale(0.65)"></path><text x="13" y="136" class="tf pk">neighbourhood<tspan x="190.87" class="ty">VARCHAR</tspan></text><path d="M7,14A2,2 0 0,1 5,12A2,2 0 0,1 7,10A2,2 0 0,1 9,12A2,2 0 0,1 7,14M12.65,10C11.83,7.67 9.61,6 7, 6A6, 6 0 0, 0 1, 12A6, 6 0 0, 0 7, 18C9.61, 18 11.83, 16.33 12.65, 14H17V18H21V14H23V10H12.65Z" class="i pk" transform="translate(113.078984375, 123) scale(0.65)"></path><text x="13" y="161" class="tf">month<tspan x="190.87" class="ty">INT</tspan></text><text x="13" y="186" class="tf">price<tspan x="190.87" class="ty">FLOAT</tspan></text><text x="13" y="211" class="tf">year<tspan x="190.87" class="ty">INT</tspan></text></svg><svg width="216.75" height="350" x="-155.11" y="-81.11" id="h154431352" class="t"><rect height="40" width="216.75" class="th"></rect><text x="13" y="25" class="tht">hosts</text><rect height="310" width="216.75" class="t-bg"></rect><text x="13" y="61" class="tf pk">host_id<tspan x="203.75" class="ty">INT</tspan></text><path d="M7,14A2,2 0 0,1 5,12A2,2 0 0,1 7,10A2,2 0 0,1 9,12A2,2 0 0,1 7,14M12.65,10C11.83,7.67 9.61,6 7, 6A6, 6 0 0, 0 1, 12A6, 6 0 0, 0 7, 18C9.61, 18 11.83, 16.33 12.65, 14H17V18H21V14H23V10H12.65Z" class="i pk" transform="translate(164.419921875, 48) scale(0.65)"></path><text x="13" y="86" class="tf">host_since<tspan x="203.75" class="ty">DATETIME</tspan></text><text x="13" y="111" class="tf">host_location<tspan x="203.75" class="ty">VARCHAR</tspan></text><text x="13" y="136" class="tf">host_response_time<tspan x="203.75" class="ty">VARCHAR</tspan></text><text x="13" y="161" class="tf">host_response_rate<tspan x="203.75" class="ty">FLOAT</tspan></text><text x="13" y="186" class="tf">host_acceptance_rate<tspan x="203.75" class="ty">FLOAT</tspan></text><text x="13" y="211" class="tf">host_is_superhost<tspan x="203.75" class="ty">BOOLEAN</tspan></text><text x="13" y="236" class="tf">host_neighbourhood<tspan x="203.75" class="ty">VARCHAR</tspan></text><text x="13" y="261" class="tf">host_listings_count<tspan x="203.75" class="ty">FLOAT</tspan></text><text x="13" y="286" class="tf">host_verifications<tspan x="203.75" class="ty">INT</tspan></text><text x="13" y="311" class="tf">host_has_profile_pic<tspan x="203.75" class="ty">BOOLEAN</tspan></text><text x="13" y="336" class="tf">host_identity_verified<tspan x="203.75" class="ty">BOOLEAN</tspan></text></svg><svg width="229.4" height="325" x="153.44" y="-91.11" id="h537963756" class="t"><rect height="40" width="229.4" class="th"></rect><text x="13" y="25" class="tht">listing_scores</text><rect height="285" width="229.4" class="t-bg"></rect><text x="13" y="61" class="tf pk">score_id<tspan x="216.4" class="ty">SERIAL</tspan></text><path d="M7,14A2,2 0 0,1 5,12A2,2 0 0,1 7,10A2,2 0 0,1 9,12A2,2 0 0,1 7,14M12.65,10C11.83,7.67 9.61,6 7, 6A6, 6 0 0, 0 1, 12A6, 6 0 0, 0 7, 18C9.61, 18 11.83, 16.33 12.65, 14H17V18H21V14H23V10H12.65Z" class="i pk" transform="translate(153.714453125, 48) scale(0.65)"></path><text x="13" y="86" class="tf fk">id</text><text x="13" y="111" class="tf">number_of_reviews<tspan x="216.4" class="ty">INT</tspan></text><text x="13" y="136" class="tf">review_scores_rating<tspan x="216.4" class="ty">INT</tspan></text><text x="13" y="161" class="tf">review_scores_accuracy<tspan x="216.4" class="ty">INT</tspan></text><text x="13" y="186" class="tf">review_scores_cleanliness<tspan x="216.4" class="ty">INT</tspan></text><text x="13" y="211" class="tf">review_scores_checkin<tspan x="216.4" class="ty">INT</tspan></text><text x="13" y="236" class="tf">review_scores_communication<tspan x="216.4" class="ty">INT</tspan></text><text x="13" y="261" class="tf">review_scores_location<tspan x="216.4" class="ty">INT</tspan></text><text x="13" y="286" class="tf">review_scores_value<tspan x="216.4" class="ty">INT</tspan></text><text x="13" y="311" class="tf">reviews_per_month<tspan x="216.4" class="ty">FLOAT</tspan></text></svg><svg width="281.48" height="750" x="412.44" y="-446.22" id="h315491893" class="t"><rect height="40" width="281.48" class="th"></rect><text x="13" y="25" class="tht">listings_cleaned</text><rect height="710" width="281.48" class="t-bg"></rect><text x="13" y="61" class="tf pk">id<tspan x="268.48" class="ty">INT</tspan></text><path d="M7,14A2,2 0 0,1 5,12A2,2 0 0,1 7,10A2,2 0 0,1 9,12A2,2 0 0,1 7,14M12.65,10C11.83,7.67 9.61,6 7, 6A6, 6 0 0, 0 1, 12A6, 6 0 0, 0 7, 18C9.61, 18 11.83, 16.33 12.65, 14H17V18H21V14H23V10H12.65Z" class="i pk" transform="translate(229.14992187500002, 48) scale(0.65)"></path><text x="13" y="86" class="tf">name<tspan x="268.48" class="ty">VARCHAR</tspan></text><text x="13" y="111" class="tf">host_id<tspan x="268.48" class="ty">INT</tspan></text><text x="13" y="136" class="tf">street<tspan x="268.48" class="ty">VARCHAR</tspan></text><text x="13" y="161" class="tf">neighbourhood<tspan x="268.48" class="ty">VARCHAR</tspan></text><text x="13" y="186" class="tf">zipcode<tspan x="268.48" class="ty">VARCHAR</tspan></text><text x="13" y="211" class="tf">property_type<tspan x="268.48" class="ty">VARCHAR</tspan></text><text x="13" y="236" class="tf">room_type<tspan x="268.48" class="ty">VARCHAR</tspan></text><text x="13" y="261" class="tf">accommodates<tspan x="268.48" class="ty">INT</tspan></text><text x="13" y="286" class="tf">bathrooms<tspan x="268.48" class="ty">FLOAT</tspan></text><text x="13" y="311" class="tf">bedrooms<tspan x="268.48" class="ty">FLOAT</tspan></text><text x="13" y="336" class="tf">beds<tspan x="268.48" class="ty">FLOAT</tspan></text><text x="13" y="361" class="tf">bed_type<tspan x="268.48" class="ty">VARCHAR</tspan></text><text x="13" y="386" class="tf">amenities_count<tspan x="268.48" class="ty">INT</tspan></text><text x="13" y="411" class="tf">price<tspan x="268.48" class="ty">FLOAT</tspan></text><text x="13" y="436" class="tf">weekly_price<tspan x="268.48" class="ty">FLOAT</tspan></text><text x="13" y="461" class="tf">monthly_price<tspan x="268.48" class="ty">FLOAT</tspan></text><text x="13" y="486" class="tf">security_deposit<tspan x="268.48" class="ty">FLOAT</tspan></text><text x="13" y="511" class="tf">cleaning_fee<tspan x="268.48" class="ty">FLOAT</tspan></text><text x="13" y="536" class="tf">guests_included<tspan x="268.48" class="ty">INT</tspan></text><text x="13" y="561" class="tf">extra_people<tspan x="268.48" class="ty">FLOAT</tspan></text><text x="13" y="586" class="tf">minimum_nights<tspan x="268.48" class="ty">INT</tspan></text><text x="13" y="611" class="tf">maximum_nights<tspan x="268.48" class="ty">INT</tspan></text><text x="13" y="636" class="tf">instant_bookable<tspan x="268.48" class="ty">BOOLEAN</tspan></text><text x="13" y="661" class="tf">cancellation_policy<tspan x="268.48" class="ty">VARCHAR</tspan></text><text x="13" y="686" class="tf">require_guest_profile_picture<tspan x="268.48" class="ty">BOOLEAN</tspan></text><text x="13" y="711" class="tf">require_guest_phone_verification<tspan x="268.48" class="ty">BOOLEAN</tspan></text><text x="13" y="736" class="tf">avg_availability<tspan x="268.48" class="ty">FLOAT</tspan></text></svg></g></g><text class="qdbd-link" x="10" y="20">www.quickdatabasediagrams.com</text></svg>